<?xml version="1.0" encoding="iso-8859-1"?>
<!-- Generator: Adobe Illustrator 19.0.0, SVG Export Plug-In . SVG Version: 6.00 Build 0)  -->
<svg version="1.1" id="Capa_1" xmlns="http://www.w3.org/2000/svg" xmlns:xlink="http://www.w3.org/1999/xlink" x="0px" y="0px"
	 viewBox="0 0 330.206 330.206" style="enable-background:new 0 0 330.206 330.206;" xml:space="preserve">
<g>
	<g>
		<path d="M326.4,83.903l-36.8-10.8c0,0,0,0-0.4,0c-0.4,0-1.2,0-1.6,0h-0.4c-0.4,0-1.2,0.4-1.6,0.4c0,0-0.4,0-0.4,0.4
			c-0.4,0.4-0.8,0.4-1.2,0.8l-0.4,0.4c-0.4,0.4-0.8,1.2-0.8,1.6l-10.4,33.2c-0.8,2.8,0.8,6,3.6,6.8c2.8,0.8,6-0.8,6.8-3.6l6.8-21.6
			c12.8,22.4,19.2,47.6,19.2,73.6c0,82.4-66.8,149.2-149.2,149.2s-149.2-66.8-149.2-149.2s66.8-149.2,149.2-149.2
			c25.2,0,50,6.4,71.6,18.4c2.8,1.6,6,0.4,7.6-2c1.6-2.8,0.4-6-2-7.6c-23.2-12.8-49.6-19.6-76.8-19.6c-88.4,0-160,71.6-160,160
			s71.6,160,160,160s160-71.6,160-160c0-27.2-6.8-53.6-20-77.6l23.2,6.8c0.4,0,1.2,0.4,1.6,0.4c2.4,0,4.4-1.6,5.2-4
			C330.8,87.903,329.2,84.703,326.4,83.903z"/>
	</g>
</g>
<g>
	<g>
		<path d="M225.2,235.503h-5.6c0.8-9.6-0.4-28-17.6-44.8l-6-6c-14-14-14-14.4-14-19.6c0-4.8,0.8-6,13.2-18c2-2,4.4-4.4,7.2-7.2
			c16.8-17.2,18-35.2,17.6-44.8h5.6c6-0.4,12-6,12-12.8c0-7.2-5.6-12.8-12.8-12.8H95.2c-7.2,0-12.8,5.6-12.8,12.8
			c0,7.2,5.6,12.8,12.8,12.8h6.8c-0.8,9.6,0.8,27.6,17.6,44.8c2.8,2.8,5.2,5.2,7.2,7.2c12.4,12.4,13.2,13.2,13.2,18
			c0,5.2,0,5.2-14,19.6l-6,6c-16.8,16.8-18.4,35.2-17.6,44.8h-6.8c-7.2,0-12.8,5.6-12.8,12.8c0,7.2,5.6,12.8,12.8,12.8h129.6
			c7.2,0,12.8-5.6,12.8-12.8S232.4,235.503,225.2,235.503z M95.6,83.903c-1.2,0-2-0.8-2-1.6c0-0.8,0.8-1.6,1.6-1.6h129.6
			c0.8,0,1.6,0.8,1.6,1.6c0,0.8-0.8,1.6-1.6,1.6h-8H104.4H95.6z M127.6,198.303l6-6c14.4-14.4,17.2-17.2,17.2-27.2
			c0-9.6-3.6-13.2-16.4-26c-2-2-4.4-4.4-7.2-7.2c-14.4-14.8-15.2-30-14.4-37.2H208c0.8,7.2,0.4,22.8-14,37.2
			c-2.8,2.8-5.2,5.2-7.2,7.2c-12.4,12.4-16,16.4-16,26c0,10,2.8,12.8,17.2,27.2l6,6c14.8,14.8,15.2,30,14.4,37.2h-95.2
			C112.4,228.303,112.8,213.103,127.6,198.303z M224.8,249.503H95.2c-0.8,0-1.6-0.8-1.6-1.6s0.8-1.6,1.6-1.6h9.2h112.4h8
			c0.8,0,1.6,0.8,1.6,1.6S225.6,249.503,224.8,249.503z"/>
	</g>
</g>
<g>
</g>
<g>
</g>
<g>
</g>
<g>
</g>
<g>
</g>
<g>
</g>
<g>
</g>
<g>
</g>
<g>
</g>
<g>
</g>
<g>
</g>
<g>
</g>
<g>
</g>
<g>
</g>
<g>
</g>
</svg>
