<?xml version="1.0" encoding="UTF-8" standalone="no"?>
<!-- Generator: Adobe Illustrator 16.0.0, SVG Export Plug-In . SVG Version: 6.00 Build 0)  -->

<svg
   xmlns:dc="http://purl.org/dc/elements/1.1/"
   xmlns:cc="http://creativecommons.org/ns#"
   xmlns:rdf="http://www.w3.org/1999/02/22-rdf-syntax-ns#"
   xmlns:svg="http://www.w3.org/2000/svg"
   xmlns="http://www.w3.org/2000/svg"
   xmlns:sodipodi="http://sodipodi.sourceforge.net/DTD/sodipodi-0.dtd"
   xmlns:inkscape="http://www.inkscape.org/namespaces/inkscape"
   version="1.1"
   id="Capa_1"
   x="0px"
   y="0px"
   width="612px"
   height="612px"
   viewBox="0 0 612 612"
   style="enable-background:new 0 0 612 612;"
   xml:space="preserve"
   inkscape:version="0.91 r13725"
   sodipodi:docname="remove-folder-interface-outlined-button.svg"><metadata
     id="metadata47"><rdf:RDF><cc:Work
         rdf:about=""><dc:format>image/svg+xml</dc:format><dc:type
           rdf:resource="http://purl.org/dc/dcmitype/StillImage" /></cc:Work></rdf:RDF></metadata><defs
     id="defs45" /><sodipodi:namedview
     pagecolor="#ffffff"
     bordercolor="#666666"
     borderopacity="1"
     objecttolerance="10"
     gridtolerance="10"
     guidetolerance="10"
     inkscape:pageopacity="0"
     inkscape:pageshadow="2"
     inkscape:window-width="2560"
     inkscape:window-height="1416"
     id="namedview43"
     showgrid="false"
     inkscape:zoom="0.54535033"
     inkscape:cx="-891.02242"
     inkscape:cy="-72.016839"
     inkscape:window-x="0"
     inkscape:window-y="24"
     inkscape:window-maximized="1"
     inkscape:current-layer="g5" /><g
     id="g3"><g
       id="g5"><path
         d="M205.938,13.909H44.426c-9.18,0-16.607,7.483-16.607,16.496V153h27.818V41.727h139.091v55.637h361.636V153h27.818V86.042    c0-9.125-7.566-16.496-16.468-16.496H222.545V30.294C222.545,21.253,215.146,13.909,205.938,13.909z"
         id="path7" /><path
         d="m 0,197.175 0,384.558 c 0,9.041 7.2890073,16.3685 16.357,16.357 l 595.27853,-0.75477 0.17063,-27.52165 -583.98816,0.45842 0,-361.636 556.363,0 1.94492,233.59729 c 25.38685,0.57855 0,0 26.03516,0.2544 L 611.999,197.175 c -0.006,-9.041 -7.288,-16.357 -16.385,-16.357 l -579.257,0 C 7.316,180.818 0,188.051 0,197.175 Z"
         id="path9"
         inkscape:connector-curvature="0"
         sodipodi:nodetypes="ssscccccccssss" /><path
         d="m 556.363,542.454 55.637,0 0,-55.636 -55.637,0 c -55.635,0 0,0 -55.635,0 l -55.637,0 0,55.636 55.637,0 c 55.635,0 0,0 55.635,0 z"
         id="polygon11"
         inkscape:connector-curvature="0"
         sodipodi:nodetypes="ccccccccc" /></g></g><g
     id="g13" /><g
     id="g15" /><g
     id="g17" /><g
     id="g19" /><g
     id="g21" /><g
     id="g23" /><g
     id="g25" /><g
     id="g27" /><g
     id="g29" /><g
     id="g31" /><g
     id="g33" /><g
     id="g35" /><g
     id="g37" /><g
     id="g39" /><g
     id="g41" /></svg>