<?xml version="1.0" encoding="UTF-8" standalone="no"?>
<!-- Generator: Adobe Illustrator 16.0.0, SVG Export Plug-In . SVG Version: 6.00 Build 0)  -->

<svg
   xmlns:osb="http://www.openswatchbook.org/uri/2009/osb"
   xmlns:dc="http://purl.org/dc/elements/1.1/"
   xmlns:cc="http://creativecommons.org/ns#"
   xmlns:rdf="http://www.w3.org/1999/02/22-rdf-syntax-ns#"
   xmlns:svg="http://www.w3.org/2000/svg"
   xmlns="http://www.w3.org/2000/svg"
   xmlns:sodipodi="http://sodipodi.sourceforge.net/DTD/sodipodi-0.dtd"
   xmlns:inkscape="http://www.inkscape.org/namespaces/inkscape"
   version="1.1"
   id="Capa_1"
   x="0px"
   y="0px"
   width="612px"
   height="612px"
   viewBox="0 0 612 612"
   style="enable-background:new 0 0 612 612;"
   xml:space="preserve"
   inkscape:version="0.91 r13725"
   sodipodi:docname="select-folder-interface-outlined-button.svg"><metadata
     id="metadata47"><rdf:RDF><cc:Work
         rdf:about=""><dc:format>image/svg+xml</dc:format><dc:type
           rdf:resource="http://purl.org/dc/dcmitype/StillImage" /></cc:Work></rdf:RDF></metadata><defs
     id="defs45"><linearGradient
       id="linearGradient5616"
       osb:paint="solid"><stop
         style="stop-color:#000000;stop-opacity:1;"
         offset="0"
         id="stop5618" /></linearGradient><linearGradient
       id="linearGradient4166"
       osb:paint="solid"><stop
         style="stop-color:#000000;stop-opacity:1;"
         offset="0"
         id="stop4168" /></linearGradient></defs><sodipodi:namedview
     pagecolor="#ffffff"
     bordercolor="#666666"
     borderopacity="1"
     objecttolerance="10"
     gridtolerance="10"
     guidetolerance="10"
     inkscape:pageopacity="0"
     inkscape:pageshadow="2"
     inkscape:window-width="2560"
     inkscape:window-height="1416"
     id="namedview43"
     showgrid="false"
     inkscape:zoom="1.0907007"
     inkscape:cx="-127.20519"
     inkscape:cy="-100.65743"
     inkscape:window-x="0"
     inkscape:window-y="24"
     inkscape:window-maximized="1"
     inkscape:current-layer="g5" /><g
     id="g3"><g
       id="g5"><path
         d="M205.938,13.909H44.426c-9.18,0-16.607,7.483-16.607,16.496V153h27.818V41.727h139.091v55.637h361.636V153h27.818V86.042    c0-9.125-7.566-16.496-16.468-16.496H222.545V30.294C222.545,21.253,215.146,13.909,205.938,13.909z"
         id="path7" /><path
         d="m 0,197.175 0,384.558 c 0,9.041 7.2890073,16.3685 16.357,16.357 l 511.84592,-0.75477 -0.74621,-27.52165 -499.63871,0.45842 0,-361.636 556.363,0 1.94492,233.59729 c 25.38685,0.57855 0,0 26.03516,0.2544 L 611.999,197.175 c -0.006,-9.041 -7.288,-16.357 -16.385,-16.357 l -579.257,0 C 7.316,180.818 0,188.051 0,197.175 Z"
         id="path9"
         inkscape:connector-curvature="0"
         sodipodi:nodetypes="ssscccccccssss" /><ellipse
         style="fill:#000000;fill-opacity:1;fill-rule:nonzero"
         id="path3356"
         ry="76.874176"
         rx="87.672905"
         cy="465.75717"
         cx="485.42877" /><path
         style="fill:#000000;fill-opacity:1;fill-rule:nonzero"
         id="path5622"
         sodipodi:type="arc"
         sodipodi:cx="388.33475"
         sodipodi:cy="458.67584"
         sodipodi:rx="70.665253"
         sodipodi:ry="48.298729"
         sodipodi:start="0"
         sodipodi:end="0.0099564925"
         sodipodi:open="true"
         d="m 459,458.67584 a 70.665253,48.298729 0 0 1 -0.003,0.48088" /><ellipse
         style="fill:#ffffff;fill-opacity:1;fill-rule:nonzero"
         id="path5626"
         cx="486.15579"
         cy="464.38193"
         rx="66.533875"
         ry="55.948074" /><rect
         style="fill:#000000;fill-opacity:1;fill-rule:nonzero"
         id="rect5630"
         width="23.248039"
         height="112.15489"
         x="-84.728271"
         y="-855.85718"
         ry="9.1994419"
         transform="matrix(-0.74243674,0.66991618,-0.65000552,-0.75992949,0,0)" /></g></g><g
     id="g13" /><g
     id="g15" /><g
     id="g17" /><g
     id="g19" /><g
     id="g21" /><g
     id="g23" /><g
     id="g25" /><g
     id="g27" /><g
     id="g29" /><g
     id="g31" /><g
     id="g33" /><g
     id="g35" /><g
     id="g37" /><g
     id="g39" /><g
     id="g41" /></svg>